# AST/ASF file generated using VICON BodyLanguage
# -----------------------------------------------
:version 1.10
:name VICON
:units
  mass 1.0
  length 0.45
  angle deg
:documentation
   .ast/.asf automatically generated from VICON data using
   VICON BodyBuilder and BodyLanguage model FoxedUp or BRILLIANT.MOD
:root
   order TX TY TZ RX RY RZ
   axis XYZ
   position 0 0 0  
   orientation 0 0 0 
:bonedata
  begin
     id 1 
     name lhipjoint
     direction 0.645422 -0.672597 0.361999 
     length 2.39934 
     axis 0 0 0  XYZ
  end
  begin
     id 2 
     name lfemur
     direction 0.34202 -0.939693 0  
     length 6.58112  
     axis 0 0 20  XYZ
    dof rx ry rz
    limits (-160.0 20.0)
           (-70.0 70.0)
           (-60.0 70.0)
  end
  begin
     id 3 
     name ltibia
     direction 0.34202 -0.939693 0   
     length 7.02673   
     axis 0 0 20   XYZ
    dof rx
    limits (-10.0 170.0)
  end
  begin
     id 4 
     name lfoot
     direction 0.0835106 -0.229444 0.969733   
     length 2.08772   
     axis -90 7.62852e-016 20   XYZ
    dof rx rz
    limits (-45.0 90.0)
           (-70.0 20.0)
  end
  begin
     id 5 
     name ltoes
     direction 1.5358e-011 -4.21925e-011 1   
     length 1.04844   
     axis -90 7.62852e-016 20   XYZ
    dof rx
    limits (-90.0 20.0)
  end
  begin
     id 6 
     name rhipjoint
     direction -0.644959 -0.672941 0.362185   
     length 2.39812  
     axis 0 0 0  XYZ 
  end
  begin
     id 7 
     name rfemur
     direction -0.34202 -0.939693 0   
     length 6.67015   
     axis 0 0 -20   XYZ
    dof rx ry rz
    limits (-160.0 20.0)
           (-70.0 70.0)
           (-70.0 60.0)
  end
  begin
     id 8 
     name rtibia
     direction -0.34202 -0.939693 0   
     length 7.35735   
     axis 0 0 -20   XYZ
    dof rx
    limits (-10.0 170.0)
 end
 begin
     id 9 
     name rfoot
     direction -0.0670769 -0.184292 0.98058   
     length 2.25469  
     axis -90 -7.62852e-016 -20   XYZ
    dof rx rz
    limits (-45.0 90.0)
           (-20.0 70.0)
  end
  begin
     id 10 
     name rtoes
     direction -1.53575e-011 -4.21908e-011 1   
     length 1.13399   
     axis -90 -7.62852e-016 -20   XYZ
    dof rx
    limits (-90.0 20.0)
  end
  begin
     id 11 
     name lowerback
     direction -0.0188328 0.993434 -0.112847   
     length 2.27656   
     axis 0 0 0   XYZ
    dof rx ry rz
    limits (-20.0 45.0)
           (-30.0 30.0)
           (-30.0 30.0)
  end
  begin
     id 12 
     name upperback
     direction 0.00983139 0.998968 -0.04435   
     length 2.28631   
     axis 0 0 0   XYZ
    dof rx ry rz
    limits (-20.0 45.0)
           (-30.0 30.0)
           (-30.0 30.0)
  end
  begin
     id 13 
     name thorax
     direction 0.0177718 0.999807 0.00833073   
     length 2.30999   
     axis 0 0 0   XYZ
    dof rx ry rz
    limits (-20.0 45.0)
           (-30.0 30.0)
           (-30.0 30.0)
  end
  begin
     id 14 
     name lowerneck
     direction -0.0835025 0.993181 0.0813558   
     length 1.39447   
     axis 0 0 0   XYZ
    dof rx ry rz
    limits (-20.0 45.0)
           (-30.0 30.0)
           (-30.0 30.0)
  end
  begin
     id 15 
     name upperneck
     direction 0.210059 0.976535 0.0474817   
     length 1.39882   
     axis 0 0 0   XYZ
    dof rx ry rz
    limits (-20.0 45.0)
           (-30.0 30.0)
           (-30.0 30.0)
  end
  begin
     id 16
     name head
     direction 0.0780891 0.996944 -0.00207154  
     length 1.41828  
     axis 0 0 0   XYZ
    dof rx ry rz
    limits (-20.0 45.0)
           (-30.0 30.0)
           (-30.0 30.0)
  end
  begin
     id 17 
     name lclavicle
     direction 0.982414 0.166355 -0.0847829  
     length 3.57922  
     axis 0 0 0   XYZ
    dof ry rz
    limits (-20.0 10.0)
           (0.0 20.0)
  end
  begin
     id 18 
     name lhumerus
     direction 1 -4.48975e-011 5.47647e-028   
     length 4.76405   
     axis -180 -30 -90   XYZ
    dof rx ry rz
    limits (-60.0 90.0)
           (-90.0 90.0)
           (-90.0 90.0)
  end
  begin
     id 19
     name lradius
     direction 1 -4.48949e-011 -8.32142e-027   
     length 3.13759   
     axis -180 -30 -90   XYZ
    dof rx
    limits (-10.0 170.0)
  end
  begin
     id 20
     name lwrist
     direction 1 -4.48978e-011 -1.32705e-026   
     length 1.56879   
     axis 9.60836e-015 90 90   XYZ
    dof ry
    limits (-180.0 0.0)
 end
  begin
     id 21 
     name lhand
     direction 1 -4.48975e-011 -2.65409e-026   
     length 0.732262   
     axis 1.69354e-014 90 90   XYZ
    dof rx rz
    limits (-90.0 90.0)
           (-45.0 45.0)
  end
  begin
     id 22 
     name lfingers
     direction 1 -4.48923e-011 -5.30819e-026   
     length 0.590368   
     axis 3.38708e-014 90 90   XYZ
    dof rx
    limits (0.0 90.0)
  end
  begin
     id 23
     name lthumb
     direction 0.707107 -6.34914e-011 0.707107   
     length 0.847654   
     axis -90 45 2.85299e-015   XYZ
    dof rx rz
    limits (-45.0 45.0)
           (-45.0 45.0)
  end
  begin
     id 24 
     name rclavicle
     direction -0.963658 0.245183 -0.106063   
     length 3.43472  
     axis 0 0 0   XYZ 
    dof ry rz
    limits (-10.0 20.0)
           (-20.0 0.0)
  end
  begin
     id 25 
     name rhumerus
     direction -1 -4.48963e-011 -1.64784e-027  
     length 5.10161   
     axis -180 30 90   XYZ
    dof rx ry rz
    limits (-90.0 60.0)
           (-90.0 90.0)
           (-90.0 90.0)
  end
  begin
     id 26 
     name rradius
     direction -1 -4.48969e-011 -2.87943e-027   
     length 3.23267   
     axis -180 30 90   XYZ
    dof rx
    limits (-10.0 170.0)
  end
  begin
     id 27 
     name rwrist
     direction -1 -4.48982e-011 -1.32705e-026   
     length 1.61633   
     axis 9.60836e-015 -90 -90   XYZ
    dof ry
    limits (-180.0 0.0)
  end
  begin
     id 28
     name rhand
     direction -1 -4.48963e-011 -2.65409e-026   
     length 0.702   
     axis 1.69354e-014 -90 -90   XYZ
    dof rx rz
    limits (-90.0 90.0)
           (-45.0 45.0)
  end
  begin
     id 29
     name rfingers
     direction -1 -4.48934e-011 -5.30819e-026   
     length 0.565971   
     axis 3.38708e-014 -90 -90   XYZ
    dof rx
    limits (0.0 90.0)
  end
  begin
     id 30
     name rthumb
     direction -0.707107 -6.34908e-011 0.707107   
     length 0.812624   
     axis -90 -45 -2.85299e-015   XYZ
    dof rx rz
    limits (-45.0 45.0)
           (-45.0 45.0)
  end
:hierarchy
  begin
    root lhipjoint rhipjoint lowerback
    lhipjoint lfemur
    lfemur ltibia
    ltibia lfoot
    lfoot ltoes
    rhipjoint rfemur
    rfemur rtibia
    rtibia rfoot
    rfoot rtoes
    lowerback upperback
    upperback thorax
    thorax lowerneck lclavicle rclavicle
    lowerneck upperneck
    upperneck head
    lclavicle lhumerus
    lhumerus lradius
    lradius lwrist
    lwrist lhand lthumb
    lhand lfingers
    rclavicle rhumerus
    rhumerus rradius
    rradius rwrist
    rwrist rhand rthumb
    rhand rfingers
  end

#!OML:ASF \\sashay\E\basketball\basketball\Project 1\Capture day 1\Session 1\Subject.ASF
:FULLY-SPECIFIED
:DEGREES
132
root -0.751573 13.9737 -7.61862 8.63306 123.009 -18.2214
lowerback 24.1503 6.28574 3.30957
upperback 10.3959 9.95489 0.0368678
thorax -1.27776 5.4858 -4.20008
lowerneck 9.73089 -17.723 -15.7426
upperneck -34.3444 -19.3886 34.1494
head -5.92043 -11.2681 15.5044
rclavicle 3.81667e-014 5.88403e-014
rhumerus -40.044 -29.7168 -63.0998
rradius 46.3927
rwrist -20.1929
rhand -40.4058 50.213
rfingers 7.12502
rthumb -13.3589 20.6612
lclavicle 3.81667e-014 5.88403e-014
lhumerus -72.3442 47.6311 36.0912
lradius 111.838
lwrist 74.7949
lhand 14.7729 39.0694
lfingers 7.12502
lthumb 39.6379 64.4037
rfemur -44.7612 -17.8287 43.0603
rtibia 63.6275
rfoot -30.0625 -15.496
rtoes -21.5684
lfemur -40.6622 1.21402 -7.91709
ltibia 108.945
lfoot -0.607551 5.0153
ltoes -22.023
133
root -0.251823 14.0549 -7.7654 8.3167 123.418 -18.4235
lowerback 24.0648 6.66293 2.87823
upperback 10.3585 10.3374 -0.0399143
thorax -1.30169 5.66004 -4.12576
lowerneck 9.80631 -17.7364 -16.3236
upperneck -33.8331 -19.5168 34.7042
head -5.55749 -11.3613 15.6782
rclavicle -5.08889e-014 -1.74931e-013
rhumerus -38.4557 -30.0043 -63.9859
rradius 44.4918
rwrist -19.0123
rhand -40.4696 49.6502
rfingers 7.12502
rthumb -13.4205 20.1025
lclavicle -5.08889e-014 -1.74931e-013
lhumerus -69.8033 47.8815 38.7944
lradius 112.444
lwrist 74.9303
lhand 12.8081 39.3129
lfingers 7.12502
lthumb 37.7846 65.1704
rfemur -41.1207 -19.0498 42.3212
rtibia 61.0777
rfoot -30.0203 -13.5998
rtoes -21.8501
lfemur -44.4646 0.185398 -8.48689
ltibia 109.401
lfoot -2.23087 5.31173
ltoes -24.9036
134
root 0.255412 14.1363 -7.90983 7.98647 123.851 -18.3641
lowerback 24.1051 6.9643 2.59185
upperback 10.3752 10.6743 -0.0136092
thorax -1.32936 5.81958 -4.02458
lowerneck 9.74314 -18.0336 -15.46
upperneck -34.0761 -19.6632 34.7274
head -5.69959 -11.5168 15.5716
rclavicle 8.5875e-014 -1.22451e-013
rhumerus -36.8444 -30.3607 -64.7698
rradius 42.6531
rwrist -17.7628
rhand -39.8436 48.8386
rfingers 7.12502
rthumb -12.8171 19.252
lclavicle 8.5875e-014 -1.22451e-013
lhumerus -66.8208 48.0024 41.8798
lradius 112.779
lwrist 74.6042
lhand 15.9352 39.8844
lfingers 7.12502
lthumb 40.7312 64.8856
rfemur -37.0014 -20.23 41.6321
rtibia 58.096
rfoot -28.9471 -13.1395
rtoes -26.05
lfemur -47.7696 -0.934776 -8.92773
ltibia 109.147
lfoot -3.23008 5.65674
ltoes -27.206
135
root 0.773444 14.2163 -8.05439 7.39254 124.232 -18.5248
lowerback 24.1927 7.3735 2.4538
upperback 10.3377 11.1703 -0.0279954
thorax -1.3925 6.05786 -4.09329
lowerneck 10.9517 -17.8788 -17.3097
upperneck -33.7537 -19.9981 35.59
head -5.30673 -11.7044 16.1854
rclavicle 1.27222e-013 -9.85972e-014
rhumerus -35.7624 -30.772 -65.3182
rradius 40.9968
rwrist -16.7686
rhand -38.7971 47.3895
rfingers 7.12502
rthumb -11.808 17.7424
lclavicle 1.27222e-013 -9.85972e-014
lhumerus -62.9057 47.5097 45.7423
lradius 112.849
lwrist 73.7024
lhand 14.5062 39.9149
lfingers 7.12502
lthumb 39.3867 65.323
rfemur -32.6119 -21.0841 40.6687
rtibia 54.8292
rfoot -27.2725 -12.8038
rtoes -30.2001
lfemur -50.5678 -2.11145 -9.55688
ltibia 108.169
lfoot -3.89975 6.12146
ltoes -28.1263
136
root 1.29972 14.2999 -8.19938 6.69461 124.408 -19.0541
lowerback 24.0646 7.82459 2.08589
upperback 10.2776 11.6498 -0.223309
thorax -1.38263 6.28467 -4.19545
lowerneck 11.6433 -18.0565 -17.7737
upperneck -33.7311 -20.4283 36.0505
head -5.15117 -11.9905 16.4179
rclavicle 5.08889e-014 -7.95139e-014
rhumerus -34.6017 -31.065 -66.2326
rradius 39.6221
rwrist -15.7209
rhand -38.4306 46.891
rfingers 7.12502
rthumb -11.4546 17.2239
lclavicle 5.08889e-014 -7.95139e-014
lhumerus -58.5039 46.9152 49.8865
lradius 112.959
lwrist 72.1467
lhand 12.0368 39.8109
lfingers 7.12502
lthumb 37.0555 65.861
rfemur -28.3191 -21.3312 39.4191
rtibia 51.462
rfoot -25.5807 -11.0506
rtoes -30.8147
lfemur -53.2081 -3.19696 -10.4987
ltibia 106.553
lfoot -4.52569 6.686
ltoes -25.1852
137
root 1.82965 14.3836 -8.34412 6.21397 124.544 -19.542
lowerback 23.7309 8.15317 1.60461
upperback 10.2295 11.9472 -0.510411
thorax -1.27811 6.42485 -4.25803
lowerneck 11.7609 -18.2065 -18.2736
upperneck -33.2602 -20.798 36.5319
head -4.75883 -12.212 16.5058
rclavicle 1.39944e-013 9.54166e-014
rhumerus -33.1728 -31.2748 -67.6221
rradius 38.6694
rwrist -14.4777
rhand -38.5191 46.9831
rfingers 7.12502
rthumb -11.5399 17.3208
lclavicle 1.39944e-013 9.54166e-014
lhumerus -53.8482 46.5181 54.0396
lradius 113.187
lwrist 70.1386
lhand 11.0519 40.2804
lfingers 7.12502
lthumb 36.1233 66.5665
rfemur -24.2593 -21.2067 38.2702
rtibia 48.1025
rfoot -23.567 -8.97097
rtoes -30.9976
lfemur -55.8534 -4.06509 -11.4504
ltibia 104.44
lfoot -4.71878 6.9918
ltoes -26.2297
